<svg>
	<defs>
		<svg id="project">
			<path d="M3 3v18h18V3zm2 2h14v14H5zm2 2v10h2V7zm4 0v6h2V7zm4 0v8h2V7z"/>
		</svg>
		<svg id="login">
			<path d="M14.08,15.59L16.67,13H7V11H16.67L14.08,8.41L15.5,7L20.5,12L15.5,17L14.08,15.59M19,3A2,2 0 0,1 21,5V9.67L19,7.67V5H5V19H19V16.33L21,14.33V19A2,2 0 0,1 19,21H5C3.89,21 3,20.1 3,19V5C3,3.89 3.89,3 5,3H19Z">
		</svg>
		<svg id="google">
			<path d="M12 13.922v-3.75h9.375q.234 1.031.234 2.062 0 4.313-2.648 7.032T12 21.984q-4.125 0-7.055-2.93T2.015 12t2.93-7.055T12 2.015q3.984 0 6.703 2.579l-2.86 2.765q-1.5-1.5-3.843-1.5-2.484 0-4.242 1.805T6 12t1.758 4.336T12 18.14q2.578 0 3.89-1.336t1.594-2.883H12z">
		</svg>
		<svg id="table">
    		<path d="M5,4H19A2,2 0 0,1 21,6V18A2,2 0 0,1 19,20H5A2,2 0 0,1 3,18V6A2,2 0 0,1 5,4M5,8V12H11V8H5M13,8V12H19V8H13M5,14V18H11V14H5M13,14V18H19V14H13Z" />
		</svg>
	</defs>
</svg>